<svg width="16" height="16" viewBox="0 0 16 16" fill="none" xmlns="http://www.w3.org/2000/svg">
<g clip-path="url(#clip0_14211_2206)">
<path d="M11.4997 6.66634C12.6963 6.66634 13.6663 5.69629 13.6663 4.49967C13.6663 3.30306 12.6963 2.33301 11.4997 2.33301C10.3031 2.33301 9.33301 3.30306 9.33301 4.49967C9.33301 5.69629 10.3031 6.66634 11.4997 6.66634Z" fill="#4D15D8" stroke="#4D15D8" stroke-width="0.5"/>
<path d="M11.4997 13.6663C12.6963 13.6663 13.6663 12.6963 13.6663 11.4997C13.6663 10.3031 12.6963 9.33301 11.4997 9.33301C10.3031 9.33301 9.33301 10.3031 9.33301 11.4997C9.33301 12.6963 10.3031 13.6663 11.4997 13.6663Z" fill="#4D15D8" stroke="#4D15D8" stroke-width="0.5"/>
<path d="M4.49967 6.66634C5.69629 6.66634 6.66634 5.69629 6.66634 4.49967C6.66634 3.30306 5.69629 2.33301 4.49967 2.33301C3.30306 2.33301 2.33301 3.30306 2.33301 4.49967C2.33301 5.69629 3.30306 6.66634 4.49967 6.66634Z" fill="#4D15D8" stroke="#4D15D8" stroke-width="0.5"/>
<path d="M4.49967 13.6663C5.69629 13.6663 6.66634 12.6963 6.66634 11.4997C6.66634 10.3031 5.69629 9.33301 4.49967 9.33301C3.30306 9.33301 2.33301 10.3031 2.33301 11.4997C2.33301 12.6963 3.30306 13.6663 4.49967 13.6663Z" fill="#4D15D8" stroke="#4D15D8" stroke-width="0.5"/>
</g>
<defs>
<clipPath id="clip0_14211_2206">
<rect width="16" height="16" fill="white"/>
</clipPath>
</defs>
</svg>
