<svg width="22" height="22" viewBox="0 0 22 22" fill="none" xmlns="http://www.w3.org/2000/svg"><path d="M11 1.375C16.3159 1.375 20.625 5.6844 20.625 11C20.625 16.3156 16.3155 20.625 11 20.625C5.68418 20.6249 1.375 16.3155 1.375 11C1.37523 5.68424 5.68433 1.37512 11 1.375ZM11 13.9395C10.4098 13.9395 9.93066 14.4187 9.93066 15.0098C9.93074 15.6008 10.4098 16.0801 11 16.0801C11.5898 16.0797 12.0683 15.6005 12.0684 15.0098C12.0684 14.419 11.5899 13.9399 11 13.9395ZM11.001 5.91992C10.4109 5.92005 9.93262 6.39956 9.93262 6.99023L10.4668 11.7451C10.539 12.3373 10.7125 12.8764 11.001 12.877C11.2894 12.8764 11.4439 12.3707 11.5352 11.7451L12.0703 6.99023C12.0703 6.39963 11.591 5.92016 11.001 5.91992Z" fill="currentColor"/></svg>