<svg width="16" height="16" viewBox="0 0 16 16" fill="none" xmlns="http://www.w3.org/2000/svg">
<g clip-path="url(#clip0_11918_3534)">
<path d="M8.00016 10.6663C11.6821 10.6663 14.6668 9.47244 14.6668 7.99967C14.6668 6.52691 11.6821 5.33301 8.00016 5.33301C4.31826 5.33301 1.3335 6.52691 1.3335 7.99967C1.3335 9.47244 4.31826 10.6663 8.00016 10.6663Z" stroke="#6B696E" stroke-linecap="round" stroke-linejoin="round"/>
<path d="M10.6668 7.99967C10.6668 11.6816 9.47293 14.6663 8.00016 14.6663C6.5274 14.6663 5.3335 11.6816 5.3335 7.99967C5.3335 4.31777 6.5274 1.33301 8.00016 1.33301C9.47293 1.33301 10.6668 4.31777 10.6668 7.99967Z" stroke="#6B696E" stroke-linecap="round" stroke-linejoin="round"/>
<path d="M8.00016 14.6663C11.6821 14.6663 14.6668 11.6816 14.6668 7.99967C14.6668 4.31778 11.6821 1.33301 8.00016 1.33301C4.31826 1.33301 1.3335 4.31778 1.3335 7.99967C1.3335 11.6816 4.31826 14.6663 8.00016 14.6663Z" stroke="#6B696E" stroke-linejoin="round"/>
</g>
<defs>
<clipPath id="clip0_11918_3534">
<rect width="16" height="16" fill="white"/>
</clipPath>
</defs>
</svg>
