<svg width="16" height="16" viewBox="0 0 16 16" fill="none" xmlns="http://www.w3.org/2000/svg">
<path fill-rule="evenodd" clip-rule="evenodd" d="M8.76172 7.99893L12.2453 4.51807C12.4559 4.30752 12.4559 3.96709 12.2453 3.75791C12.0348 3.54736 11.6943 3.54736 11.4852 3.75791L8.0002 7.2374L4.51523 3.75654C4.30469 3.546 3.96426 3.546 3.75508 3.75654C3.54453 3.96709 3.54453 4.30752 3.75508 4.5167L7.23867 7.99756L3.75508 11.4798C3.54453 11.6903 3.54453 12.0308 3.75508 12.2399C3.86035 12.3452 3.99844 12.3972 4.13516 12.3972C4.27324 12.3972 4.40996 12.3452 4.51523 12.2399L8.0002 8.75908L11.4852 12.2413C11.5904 12.3466 11.7271 12.3985 11.8652 12.3985C12.0033 12.3985 12.14 12.3466 12.2453 12.2413C12.4559 12.0308 12.4559 11.6903 12.2453 11.4812L8.76172 7.99893Z" fill="#2B2639"/>
</svg>
