<svg width="16" height="16" viewBox="0 0 16 16" fill="none" xmlns="http://www.w3.org/2000/svg">
<g clip-path="url(#clip0_14999_7041)">
<path d="M14.6674 3.66699C14.6674 3.66699 14.6673 12.0211 14.6673 12.667C14.6673 13.7716 11.6826 14.667 8.00065 14.667C4.31875 14.667 1.33399 13.7716 1.33399 12.667C1.33399 12.0478 1.33398 3.66699 1.33398 3.66699" stroke="#4D15D8" stroke-linecap="round" stroke-linejoin="round"/>
<path d="M14.6673 9.66699C14.6673 10.7716 11.6826 11.667 8.00065 11.667C4.31875 11.667 1.33398 10.7716 1.33398 9.66699" stroke="#4D15D8" stroke-linecap="round" stroke-linejoin="round"/>
<path d="M14.6673 6.66699C14.6673 7.77156 11.6826 8.66699 8.00065 8.66699C4.31875 8.66699 1.33398 7.77156 1.33398 6.66699" stroke="#4D15D8" stroke-linecap="round" stroke-linejoin="round"/>
<path d="M8.00065 5.33301C11.6825 5.33301 14.6673 4.43758 14.6673 3.33301C14.6673 2.22844 11.6825 1.33301 8.00065 1.33301C4.31875 1.33301 1.33398 2.22844 1.33398 3.33301C1.33398 4.43758 4.31875 5.33301 8.00065 5.33301Z" fill="#4D15D8" stroke="#4D15D8" stroke-linecap="round" stroke-linejoin="round"/>
</g>
<defs>
<clipPath id="clip0_14999_7041">
<rect width="16" height="16" fill="white"/>
</clipPath>
</defs>
</svg>
