<svg width="16" height="16" viewBox="0 0 16 16" fill="none" xmlns="http://www.w3.org/2000/svg">
<g clip-path="url(#clip0_14302_1762)">
<path d="M14.6664 3.66699C14.6664 3.66699 14.6663 12.0211 14.6663 12.667C14.6663 13.7716 11.6816 14.667 7.99967 14.667C4.31777 14.667 1.33302 13.7716 1.33302 12.667C1.33302 12.0478 1.33301 3.66699 1.33301 3.66699" stroke="#6B696E" stroke-linecap="round" stroke-linejoin="round"/>
<path d="M14.6663 9.66699C14.6663 10.7716 11.6816 11.667 7.99967 11.667C4.31777 11.667 1.33301 10.7716 1.33301 9.66699" stroke="#6B696E" stroke-linecap="round" stroke-linejoin="round"/>
<path d="M14.6663 6.66699C14.6663 7.77156 11.6816 8.66699 7.99967 8.66699C4.31777 8.66699 1.33301 7.77156 1.33301 6.66699" stroke="#6B696E" stroke-linecap="round" stroke-linejoin="round"/>
<path d="M7.99967 5.33301C11.6816 5.33301 14.6663 4.43758 14.6663 3.33301C14.6663 2.22844 11.6816 1.33301 7.99967 1.33301C4.31778 1.33301 1.33301 2.22844 1.33301 3.33301C1.33301 4.43758 4.31778 5.33301 7.99967 5.33301Z" stroke="#6B696E" stroke-linecap="round" stroke-linejoin="round"/>
</g>
<defs>
<clipPath id="clip0_14302_1762">
<rect width="16" height="16" fill="white"/>
</clipPath>
</defs>
</svg>
