<svg width="20" height="20" viewBox="0 0 20 20" fill="none" xmlns="http://www.w3.org/2000/svg">
<g clip-path="url(#clip0_17639_5138)">
<path d="M4.10874 7.5C2.60071 8.75 1.66797 10 1.66797 10C1.66797 10 5.39893 15 10.0013 15C10.5721 15 11.1295 14.9231 11.668 14.7884M8.34788 5.20833C8.8823 5.07567 9.43522 5 10.0013 5C14.6037 5 18.3346 10 18.3346 10C18.3346 10 17.4019 11.25 15.8938 12.5" stroke="#AAA9AC" stroke-width="1.4" stroke-linecap="round" stroke-linejoin="round"/>
<path d="M8.46555 8.5918C8.12551 8.96255 7.91797 9.45684 7.91797 9.99959C7.91797 11.1502 8.85072 12.0829 10.0013 12.0829C10.5691 12.0829 11.0838 11.8558 11.4596 11.4874" stroke="#AAA9AC" stroke-width="1.4" stroke-linecap="round" stroke-linejoin="round"/>
<path d="M17.5 17.5L2.5 2.5" stroke="#AAA9AC" stroke-width="1.4" stroke-linecap="round" stroke-linejoin="round"/>
</g>
<defs>
<clipPath id="clip0_17639_5138">
<rect width="20" height="20" fill="white"/>
</clipPath>
</defs>
</svg>
