<svg width="16" height="16" viewBox="0 0 16 16" fill="none" xmlns="http://www.w3.org/2000/svg">
<path d="M8 1C11.8661 1 15 4.13411 15 8C15 11.8659 11.8658 15 8 15C4.13395 14.9999 1 11.8658 1 8C1.00017 4.13399 4.13406 1.00009 8 1ZM8 6.63867C7.67803 6.63891 7.41699 6.90063 7.41699 7.22266V11.1113C7.41711 11.4332 7.67811 11.6941 8 11.6943C8.32189 11.6941 8.58387 11.4332 8.58398 11.1113V7.22266C8.58398 6.90063 8.32197 6.63891 8 6.63867ZM8 4.30566C7.57079 4.3059 7.22289 4.6538 7.22266 5.08301C7.22271 5.51237 7.57068 5.86109 8 5.86133C8.42932 5.86109 8.77826 5.51237 8.77832 5.08301C8.77809 4.6538 8.42921 4.3059 8 4.30566Z" fill="#4D15D8"/>
</svg>
