<svg width="16" height="16" viewBox="0 0 16 16" fill="none" xmlns="http://www.w3.org/2000/svg">
<path d="M8 1C11.8656 1 15 4.13438 15 8C15 11.8656 11.8656 15 8 15C4.13438 15 1 11.8656 1 8C1 4.13438 4.13438 1 8 1ZM10.1895 5.51562C10.0301 5.51562 9.87793 5.59238 9.78418 5.72363L7.32812 9.12988L6.21582 7.58594C6.12207 7.45625 5.97148 7.37793 5.81055 7.37793H5.07812C4.97667 7.37793 4.9175 7.49338 4.97656 7.57617L6.92383 10.2764C7.12228 10.5529 7.53302 10.5529 7.73145 10.2764L11.0215 5.71387C11.0824 5.63105 11.0234 5.51562 10.9219 5.51562H10.1895Z" fill="#1CB967"/>
</svg>
