<svg width="16" height="16" viewBox="0 0 16 16" fill="none" xmlns="http://www.w3.org/2000/svg">
<path d="M7.78223 1.66113C7.9198 1.59455 8.0802 1.59455 8.21777 1.66113L10.5156 2.77344L10.5176 2.77441L12.8203 3.87695C12.9581 3.94296 13.058 4.06877 13.0918 4.21777L13.6543 6.70801L13.6553 6.71094L14.2285 9.19824C14.2628 9.34715 14.2273 9.50376 14.1318 9.62305L12.5352 11.6152L12.5342 11.6172L10.9463 13.6162C10.8512 13.736 10.7067 13.806 10.5537 13.8057L8.00098 13.7998H7.99902L5.44629 13.8057C5.29334 13.806 5.1488 13.736 5.05371 13.6162L3.46582 11.6172L3.46484 11.6152L1.86816 9.62305C1.77268 9.50376 1.73721 9.34715 1.77148 9.19824L2.34473 6.71094L2.3457 6.70801L2.9082 4.21777C2.94198 4.06877 3.04188 3.94296 3.17969 3.87695L5.48242 2.77441L5.48438 2.77344L7.78223 1.66113Z" stroke="#6B696E"/>
<path d="M3.72 9.5V6.748H4.552L5.24 8.084L5.912 6.748H6.744V9.5H5.912V8.06L5.404 9.02H5.064L4.552 8.06V9.5H3.72ZM9.00084 9.564C8.71284 9.564 8.46084 9.50667 8.24484 9.392C8.03151 9.27467 7.86484 9.11067 7.74484 8.9C7.62751 8.68933 7.56884 8.444 7.56884 8.164C7.56884 7.876 7.63018 7.62133 7.75284 7.4C7.87818 7.17867 8.04884 7.00533 8.26484 6.88C8.48351 6.752 8.73418 6.688 9.01684 6.688C9.33151 6.688 9.57818 6.74933 9.75684 6.872L9.64884 7.508C9.57151 7.47067 9.49018 7.444 9.40484 7.428C9.32218 7.40933 9.24351 7.4 9.16884 7.4C8.95018 7.4 8.77818 7.46533 8.65284 7.596C8.52751 7.72667 8.46484 7.908 8.46484 8.14C8.46484 8.35867 8.52484 8.53067 8.64484 8.656C8.76751 8.77867 8.93684 8.84 9.15284 8.84C9.23818 8.84 9.31551 8.832 9.38484 8.816C9.45684 8.8 9.54484 8.77067 9.64884 8.728L9.76084 9.36C9.52884 9.496 9.27551 9.564 9.00084 9.564ZM10.5481 9.5V6.744H11.4801C11.9335 6.744 12.2748 6.81867 12.5041 6.968C12.7361 7.11467 12.8521 7.332 12.8521 7.62C12.8521 7.82 12.8015 7.99067 12.7001 8.132C12.6015 8.27067 12.4615 8.37733 12.2801 8.452C12.0988 8.524 11.8855 8.56 11.6401 8.56H11.4321V9.5H10.5481ZM11.6041 8.004C11.7455 8.004 11.8548 7.97467 11.9321 7.916C12.0095 7.85733 12.0481 7.76933 12.0481 7.652C12.0481 7.54267 12.0108 7.46133 11.9361 7.408C11.8615 7.352 11.7535 7.324 11.6121 7.324H11.4321V8.004H11.6041Z" fill="#6B696E"/>
</svg>
