<svg width="16" height="16" viewBox="0 0 16 16" fill="none" xmlns="http://www.w3.org/2000/svg">
<path d="M14 0C15.1046 0 16 0.895431 16 2V14C16 15.1046 15.1046 16 14 16H2C0.895431 16 0 15.1046 0 14V2C0 0.895431 0.895431 0 2 0H14ZM12.2246 4.6709C12.0322 4.49798 11.7356 4.51378 11.5625 4.70605L6.31055 10.5391L4.44434 8.4668C4.2712 8.27451 3.97462 8.2587 3.78223 8.43164C3.58998 8.60478 3.57415 8.90137 3.74707 9.09375L5.95605 11.5469C6.07467 11.6782 6.25019 11.7244 6.41113 11.6865C6.42595 11.6836 6.44056 11.6801 6.45508 11.6758C6.45634 11.6754 6.45773 11.6752 6.45898 11.6748C6.53708 11.6507 6.61026 11.6071 6.66895 11.542L12.2598 5.33301C12.4328 5.14067 12.4168 4.8441 12.2246 4.6709Z" fill="#4D15D8"/>
</svg>
