<svg version="1.1" id="Layer_1" xmlns="http://www.w3.org/2000/svg" xmlns:xlink="http://www.w3.org/1999/xlink" x="0px" y="0px"
	 width="100%" viewBox="0 0 90 90" enable-background="new 0 0 90 90" xml:space="preserve">
<path fill="#FDFEFD" opacity="1.000000" stroke="none" 
	d="
M53.000000,91.000000 
	C35.333336,91.000000 18.166674,91.000000 1.000007,91.000000 
	C1.000005,61.000008 1.000005,31.000017 1.000002,1.000019 
	C30.999987,1.000013 60.999973,1.000013 90.999969,1.000006 
	C90.999985,30.999979 90.999985,60.999958 90.999992,90.999969 
	C78.500000,91.000000 66.000000,91.000000 53.000000,91.000000 
M80.893669,67.177391 
	C81.182648,66.455467 81.719658,65.734818 81.723404,65.011421 
	C81.779625,54.152241 81.796989,43.292465 81.715775,32.433640 
	C81.708282,31.433052 80.967155,30.437954 80.311913,28.801247 
	C69.551460,22.999853 58.834602,17.113922 47.971554,11.511456 
	C46.711693,10.861700 44.421112,11.340480 42.983521,12.052959 
	C36.020130,15.504059 29.143330,19.137587 22.320694,22.861904 
	C18.603821,24.890860 15.055875,27.229273 10.781338,29.899609 
	C10.618346,41.886333 10.435134,53.872940 10.362628,65.860214 
	C10.359571,66.365776 11.385673,66.877563 12.348549,67.681206 
	C12.518485,67.686089 12.688422,67.690971 13.102491,68.284744 
	C23.169725,73.698189 33.215015,79.153419 43.333954,84.468422 
	C44.504368,85.083191 46.419399,85.550865 47.422253,85.018570 
	C58.063080,79.370743 68.589073,73.506554 79.653511,67.684410 
	C79.791626,67.586052 79.929733,67.487686 80.893669,67.177391 
z"/>
<path fill="#62A251" opacity="1.000000" stroke="none" 
	d="
M79.146683,67.701920 
	C68.589073,73.506554 58.063080,79.370743 47.422253,85.018570 
	C46.419399,85.550865 44.504368,85.083191 43.333954,84.468422 
	C33.215015,79.153419 23.169725,73.698189 13.025999,67.467239 
	C12.967185,55.844120 13.019986,45.038311 12.959330,34.233147 
	C12.951501,32.838665 12.356144,31.447483 11.889021,29.891991 
	C11.745095,29.729210 11.431740,29.428114 11.431740,29.428114 
	C15.055875,27.229273 18.603821,24.890860 22.320694,22.861904 
	C29.143330,19.137587 36.020130,15.504059 42.983521,12.052959 
	C44.421112,11.340480 46.711693,10.861700 47.971554,11.511456 
	C58.834602,17.113922 69.551460,22.999853 80.283173,29.269043 
	C80.254425,29.736841 79.965958,30.056561 79.670029,30.342295 
	C79.298286,42.985992 79.222481,55.343956 79.146683,67.701920 
z"/>
<path fill="#62A251" opacity="1.000000" stroke="none" 
	d="
M11.932325,67.386459 
	C11.385673,66.877563 10.359571,66.365776 10.362628,65.860214 
	C10.435134,53.872940 10.618346,41.886333 11.106539,29.663860 
	C11.431740,29.428114 11.745095,29.729210 11.880379,30.354164 
	C11.987884,43.114899 11.960104,55.250679 11.932325,67.386459 
z"/>
<path fill="#62A251" opacity="1.000000" stroke="none" 
	d="
M80.410553,29.588573 
	C80.967155,30.437954 81.708282,31.433052 81.715775,32.433640 
	C81.796989,43.292465 81.779625,54.152241 81.723404,65.011421 
	C81.719658,65.734818 81.182648,66.455467 80.461975,66.781586 
	C80.008842,54.276035 79.987404,42.166298 79.965958,30.056561 
	C79.965958,30.056561 80.254425,29.736841 80.410553,29.588573 
z"/>
<path fill="#51983F" opacity="1.000000" stroke="none" 
	d="
M12.140437,67.533829 
	C11.960104,55.250679 11.987884,43.114899 12.024303,30.516945 
	C12.356144,31.447483 12.951501,32.838665 12.959330,34.233147 
	C13.019986,45.038311 12.967185,55.844120 12.903933,67.172791 
	C12.688422,67.690971 12.518485,67.686089 12.140437,67.533829 
z"/>
<path fill="#51983F" opacity="1.000000" stroke="none" 
	d="
M79.670029,30.342295 
	C79.987404,42.166298 80.008842,54.276035 80.049065,66.887543 
	C79.929733,67.487686 79.791626,67.586052 79.400101,67.693161 
	C79.222481,55.343956 79.298286,42.985992 79.670029,30.342295 
z"/>
</svg>