<svg width="20" height="20" viewBox="0 0 20 20" fill="none" xmlns="http://www.w3.org/2000/svg">
<g clip-path="url(#clip0_14999_8265)">
<rect width="20" height="20" rx="10" fill="white"/>
<g clip-path="url(#clip1_14999_8265)">
<mask id="mask0_14999_8265" style="mask-type:luminance" maskUnits="userSpaceOnUse" x="0" y="0" width="20" height="20">
<path d="M20 0H0V20H20V0Z" fill="white"/>
</mask>
<g mask="url(#mask0_14999_8265)">
<path d="M20 0H0V20H20V0Z" fill="white"/>
<path d="M20.0098 0H0.00976562V20H20.0098V0Z" fill="url(#paint0_linear_14999_8265)"/>
<path d="M20.0098 0H0.00976562V20H20.0098V0Z" fill="url(#paint1_linear_14999_8265)"/>
<path d="M20.0098 0H0.00976562V20H20.0098V0Z" fill="url(#paint2_linear_14999_8265)"/>
<path d="M20.0098 0H0.00976562V20H20.0098V0Z" fill="url(#paint3_linear_14999_8265)"/>
</g>
</g>
<path d="M10.0005 8.97366C11.1334 8.97366 12.0518 8.05527 12.0518 6.92238C12.0518 5.78948 11.1334 4.87109 10.0005 4.87109C8.86761 4.87109 7.94922 5.78948 7.94922 6.92238C7.94922 8.05527 8.86761 8.97366 10.0005 8.97366Z" fill="#6732EB" stroke="#6732EB" stroke-linecap="round" stroke-linejoin="round"/>
<path d="M14.6155 15.1281C14.6155 12.5791 12.5491 10.5127 10.0001 10.5127C7.45115 10.5127 5.38477 12.5791 5.38477 15.1281" stroke="#6732EB" stroke-linecap="round" stroke-linejoin="round"/>
</g>
<defs>
<linearGradient id="paint0_linear_14999_8265" x1="16.4898" y1="1.39" x2="5.22976" y2="20" gradientUnits="userSpaceOnUse">
<stop stop-color="#FFB9BB"/>
<stop offset="0.510417" stop-color="#FF9DA0"/>
<stop offset="1" stop-color="#D1BEF0"/>
</linearGradient>
<linearGradient id="paint1_linear_14999_8265" x1="0.669764" y1="20" x2="9.57976" y2="11.92" gradientUnits="userSpaceOnUse">
<stop stop-color="#CCBAFF"/>
<stop offset="0.963542" stop-color="#C5AFFF" stop-opacity="0.2"/>
</linearGradient>
<linearGradient id="paint2_linear_14999_8265" x1="10.0098" y1="7.2" x2="18.8498" y2="10" gradientUnits="userSpaceOnUse">
<stop stop-color="#E1D6FB" stop-opacity="0.3"/>
<stop offset="0.0001" stop-color="#E1D6FB" stop-opacity="0.3"/>
<stop offset="1" stop-color="#E1D6FB" stop-opacity="0.8"/>
</linearGradient>
<linearGradient id="paint3_linear_14999_8265" x1="10.8898" y1="2.54" x2="10.6598" y2="12.8" gradientUnits="userSpaceOnUse">
<stop stop-color="#EFDCEC"/>
<stop offset="1" stop-color="#CCBAFF"/>
</linearGradient>
<clipPath id="clip0_14999_8265">
<rect width="20" height="20" rx="10" fill="white"/>
</clipPath>
<clipPath id="clip1_14999_8265">
<rect width="20" height="20" fill="white"/>
</clipPath>
</defs>
</svg>
