<svg width="16" height="16" viewBox="0 0 16 16" fill="none" xmlns="http://www.w3.org/2000/svg">
<path fill-rule="evenodd" clip-rule="evenodd" d="M13.5391 7.42188H8.5625V2.57031C8.5625 2.25938 8.31094 2.00781 8 2.00781V2.00781C7.68906 2.00781 7.4375 2.25938 7.4375 2.57031V7.42188H2.57031C2.25938 7.42188 2.00781 7.67344 2.00781 7.98438V7.98438C2.00781 8.29531 2.25938 8.54688 2.57031 8.54688H7.4375V13.4141C7.4375 13.725 7.68906 13.9766 8 13.9766V13.9766C8.31094 13.9766 8.5625 13.725 8.5625 13.4141V8.54688H13.5391C13.85 8.54688 14.1016 8.29531 14.1016 7.98438V7.98438C14.1016 7.67344 13.85 7.42188 13.5391 7.42188Z" fill="#4D15D8"/>
</svg>
