<svg width="16" height="16" viewBox="0 0 16 16" fill="none" xmlns="http://www.w3.org/2000/svg">
<path fill-rule="evenodd" clip-rule="evenodd" d="M14.8355 13.9659L12.2429 11.2869C13.1071 10.1634 13.6256 8.86713 13.6256 7.31157C13.6256 3.85478 10.7737 1.00293 7.31694 1.00293C3.86015 1.00293 1.0083 3.85478 1.0083 7.31157C1.0083 10.7684 3.86015 13.6202 7.31694 13.6202C8.78608 13.6202 10.1688 13.1017 11.2923 12.2375L13.8848 14.8301C13.9713 15.0029 14.1441 15.0029 14.3169 15.0029C14.4898 15.0029 14.6626 14.9165 14.749 14.8301C15.0083 14.6573 15.0083 14.2252 14.8355 13.9659ZM2.3046 7.39799C2.3046 4.63256 4.55151 2.38565 7.31694 2.38565C10.0824 2.38565 12.3293 4.63256 12.3293 7.39799C12.3293 10.1634 10.0824 12.4103 7.31694 12.4103C4.55151 12.4103 2.3046 10.1634 2.3046 7.39799Z" fill="#AAAFB9"/>
</svg>
