<svg width="16" height="16" viewBox="0 0 16 16" fill="none" xmlns="http://www.w3.org/2000/svg">
<path d="M12.2129 5.15534C12.3861 4.96296 12.6826 4.94698 12.875 5.12019C13.0673 5.29341 13.0824 5.58991 12.9091 5.7823L8.43844 10.7471C8.41341 10.7947 8.38204 10.8399 8.3398 10.878C8.25395 10.9553 8.14709 10.993 8.04 10.9962C8.03153 10.9968 8.0231 10.9969 8.01461 10.9971C8.00579 10.9969 7.99703 10.9969 7.98824 10.9962C7.88168 10.9926 7.77583 10.9549 7.69039 10.878C7.64694 10.8388 7.6131 10.7933 7.58785 10.7442L3.12008 5.7823C2.94708 5.5899 2.96293 5.29334 3.15523 5.12019C3.34763 4.94719 3.64419 4.96303 3.81734 5.15534L8.01461 9.81745L12.2129 5.15534Z" fill="#838B98"/>
</svg>
