<svg version="1.1" id="Layer_1" xmlns="http://www.w3.org/2000/svg" xmlns:xlink="http://www.w3.org/1999/xlink" x="0px" y="0px"
	 width="100%" viewBox="0 0 90 90" enable-background="new 0 0 90 90" xml:space="preserve">
<path fill="#FFFCFB" opacity="1.000000" stroke="none" 
	d="
M51.000000,91.000000 
	C34.000000,91.000000 17.500000,91.000000 1.000000,91.000000 
	C1.000000,61.000000 1.000000,31.000000 1.000000,1.000000 
	C31.000000,1.000000 61.000000,1.000000 91.000000,1.000000 
	C91.000000,31.000000 91.000000,61.000000 91.000000,91.000000 
	C77.833336,91.000000 64.666664,91.000000 51.000000,91.000000 
M12.111572,37.588844 
	C30.324415,37.501026 48.537258,37.413212 67.470734,37.489895 
	C67.961891,37.494137 68.453041,37.498379 69.217163,38.110920 
	C69.123062,40.222679 69.028954,42.334438 68.317047,44.453667 
	C68.120178,44.514141 67.923309,44.574619 66.853920,44.370781 
	C49.037266,44.347332 31.220598,44.328777 13.403963,44.294426 
	C11.104864,44.289993 7.934592,43.714230 8.281763,47.038891 
	C8.425367,48.414104 11.660707,50.416733 13.558440,50.496094 
	C22.368340,50.864529 31.202259,50.659084 40.027580,50.658234 
	C48.686382,50.657398 57.346340,50.586647 66.002701,50.731358 
	C67.244896,50.752125 68.915970,51.517948 69.551460,52.487591 
	C70.002457,53.175724 69.401161,55.391201 68.632294,55.844818 
	C67.478455,56.525547 65.766304,56.376007 64.291229,56.378433 
	C47.306698,56.406372 30.320684,56.297440 13.339609,56.541332 
	C11.538784,56.567196 9.766822,58.602493 7.981469,59.705566 
	C9.715431,60.788963 11.400957,62.702225 13.192051,62.806767 
	C19.664053,63.184521 26.172009,63.002472 32.665565,62.942482 
	C44.469330,62.833435 56.272495,62.660427 68.531868,62.736835 
	C68.698586,62.765465 68.865295,62.794090 69.299789,63.406342 
	C69.893097,63.349522 70.699371,63.523262 71.047836,63.201378 
	C76.506020,58.159477 81.905151,53.053642 87.307472,47.972313 
	C81.707024,42.053513 77.082390,37.098228 72.355476,32.242496 
	C71.635460,31.502855 70.439240,30.792322 69.467293,30.797684 
	C55.369583,30.875433 41.272713,31.092350 27.175285,31.242361 
	C22.191092,31.295399 17.196039,31.086048 12.227575,31.372150 
	C10.836510,31.452251 9.259063,32.653015 8.318229,33.794109 
	C7.995730,34.185257 9.355312,35.963280 10.554072,37.415997 
	C10.779640,37.389362 11.005207,37.362732 12.111572,37.588844 
z"/>
<path fill="#FF7745" opacity="1.000000" stroke="none" 
	d="
M66.750099,37.325394 
	C48.537258,37.413212 30.324415,37.501026 11.552591,37.246704 
	C10.644544,36.972271 10.295477,37.039978 9.946410,37.107685 
	C9.355312,35.963280 7.995730,34.185257 8.318229,33.794109 
	C9.259063,32.653015 10.836510,31.452251 12.227575,31.372150 
	C17.196039,31.086048 22.191092,31.295399 27.175285,31.242361 
	C41.272713,31.092350 55.369583,30.875433 69.467293,30.797684 
	C70.439240,30.792322 71.635460,31.502855 72.355476,32.242496 
	C77.082390,37.098228 81.707024,42.053513 87.307472,47.972313 
	C81.905151,53.053642 76.506020,58.159477 71.047836,63.201378 
	C70.699371,63.523262 69.893097,63.349522 69.118462,62.901100 
	C68.851868,62.136623 68.766602,61.877388 68.681335,61.618149 
	C68.479523,61.916805 68.277718,62.215458 68.075912,62.514114 
	C56.272495,62.660427 44.469330,62.833435 32.665565,62.942482 
	C26.172009,63.002472 19.664053,63.184521 13.192051,62.806767 
	C11.400957,62.702225 9.715431,60.788963 7.981469,59.705566 
	C9.766822,58.602493 11.538784,56.567196 13.339609,56.541332 
	C30.320684,56.297440 47.306698,56.406372 64.291229,56.378433 
	C65.766304,56.376007 67.478455,56.525547 68.632294,55.844818 
	C69.401161,55.391201 70.002457,53.175724 69.551460,52.487591 
	C68.915970,51.517948 67.244896,50.752125 66.002701,50.731358 
	C57.346340,50.586647 48.686382,50.657398 40.027580,50.658234 
	C31.202259,50.659084 22.368340,50.864529 13.558440,50.496094 
	C11.660707,50.416733 8.425367,48.414104 8.281763,47.038891 
	C7.934592,43.714230 11.104864,44.289993 13.403963,44.294426 
	C31.220598,44.328777 49.037266,44.347332 67.443176,44.721527 
	C68.333237,44.863583 68.634041,44.654888 68.934845,44.446198 
	C69.028954,42.334438 69.123062,40.222679 68.981552,37.489899 
	C68.080666,37.021046 67.415382,37.173222 66.750099,37.325394 
z"/>
<path fill="#FF5B1F" opacity="1.000000" stroke="none" 
	d="
M67.110413,37.407646 
	C67.415382,37.173222 68.080666,37.021046 68.845078,37.185745 
	C68.453041,37.498379 67.961891,37.494137 67.110413,37.407646 
z"/>
<path fill="#FF5C22" opacity="1.000000" stroke="none" 
	d="
M68.303886,62.625473 
	C68.277718,62.215458 68.479523,61.916805 68.681335,61.618149 
	C68.766602,61.877388 68.851868,62.136623 68.984566,62.609291 
	C68.865295,62.794090 68.698586,62.765465 68.303886,62.625473 
z"/>
<path fill="#FF5B1F" opacity="1.000000" stroke="none" 
	d="
M10.250241,37.261841 
	C10.295477,37.039978 10.644544,36.972271 11.112192,37.120338 
	C11.005207,37.362732 10.779640,37.389362 10.250241,37.261841 
z"/>
<path fill="#FF5C20" opacity="1.000000" stroke="none" 
	d="
M68.625946,44.449928 
	C68.634041,44.654888 68.333237,44.863583 67.879440,44.853683 
	C67.923309,44.574619 68.120178,44.514141 68.625946,44.449928 
z"/>
</svg>