<svg version="1.1" id="Layer_1" xmlns="http://www.w3.org/2000/svg" xmlns:xlink="http://www.w3.org/1999/xlink" x="0px" y="0px"
	 width="100%" viewBox="0 0 90 90" enable-background="new 0 0 90 90" xml:space="preserve">
<path fill="#FDFEFF" opacity="1.000000" stroke="none" 
	d="
M47.000000,91.000000 
	C31.333334,91.000000 16.166666,91.000000 1.000000,91.000000 
	C1.000000,61.000000 1.000000,31.000000 1.000000,1.000000 
	C31.000000,1.000000 61.000000,1.000000 91.000000,1.000000 
	C91.000000,31.000000 91.000000,61.000000 91.000000,91.000000 
	C76.500000,91.000000 62.000000,91.000000 47.000000,91.000000 
M49.143116,52.082508 
	C46.425674,53.668941 43.703167,55.246773 40.991905,56.843697 
	C36.137966,59.702652 31.175507,60.026134 26.455770,56.823811 
	C22.283459,53.992901 21.051319,56.375977 19.879040,59.644886 
	C29.471189,67.636780 36.590946,68.095879 47.445389,60.437801 
	C54.800125,55.248848 61.738087,53.929874 69.773758,60.131466 
	C70.393501,57.562847 75.258614,56.783298 71.455933,53.571041 
	C69.428024,51.858002 66.474899,51.240234 63.461403,49.347752 
	C64.224976,48.584076 64.862976,47.579258 65.776505,47.103519 
	C68.181313,45.851166 70.705902,44.828819 73.182777,43.714859 
	C73.264931,43.027218 73.347084,42.339577 73.429237,41.651936 
	C71.466499,40.825985 68.664825,38.725353 67.674614,39.377060 
	C60.193291,44.300907 53.941883,41.747299 47.483959,37.322388 
	C36.675358,29.916435 27.968756,30.380463 19.471819,38.681698 
	C20.719887,40.097080 21.981228,41.527515 23.489174,43.237617 
	C29.022652,38.858799 34.858383,37.625877 40.884872,40.860210 
	C45.431358,43.300251 49.670620,46.312748 54.018997,49.053028 
	C52.648102,49.993797 51.235191,50.963394 49.143116,52.082508 
z"/>
<path fill="#18C1D7" opacity="1.000000" stroke="none" 
	d="
M49.822285,51.932991 
	C51.235191,50.963394 52.648102,49.993797 54.018997,49.053028 
	C49.670620,46.312748 45.431358,43.300251 40.884872,40.860210 
	C34.858383,37.625877 29.022652,38.858799 23.489174,43.237617 
	C21.981228,41.527515 20.719887,40.097080 19.471819,38.681698 
	C27.968756,30.380463 36.675358,29.916435 47.483959,37.322388 
	C53.941883,41.747299 60.193291,44.300907 67.674614,39.377060 
	C68.664825,38.725353 71.466499,40.825985 73.429237,41.651936 
	C73.347084,42.339577 73.264931,43.027218 73.182777,43.714859 
	C70.705902,44.828819 68.181313,45.851166 65.776505,47.103519 
	C64.862976,47.579258 64.224976,48.584076 63.454800,49.971180 
	C58.906227,51.040737 54.364254,51.486862 49.822285,51.932991 
z"/>
<path fill="#17C0D7" opacity="1.000000" stroke="none" 
	d="
M49.482700,52.007751 
	C54.364254,51.486862 58.906227,51.040737 63.693779,50.361366 
	C66.474899,51.240234 69.428024,51.858002 71.455933,53.571041 
	C75.258614,56.783298 70.393501,57.562847 69.773758,60.131466 
	C61.738087,53.929874 54.800125,55.248848 47.445389,60.437801 
	C36.590946,68.095879 29.471189,67.636780 19.879040,59.644886 
	C21.051319,56.375977 22.283459,53.992901 26.455770,56.823811 
	C31.175507,60.026134 36.137966,59.702652 40.991905,56.843697 
	C43.703167,55.246773 46.425674,53.668941 49.482700,52.007751 
z"/>
</svg>