<svg width="16" height="16" viewBox="0 0 16 16" fill="none" xmlns="http://www.w3.org/2000/svg">
<g clip-path="url(#clip0_18160_5042)">
<path d="M4.66667 11.3333C5.58714 11.3333 6.33333 10.5871 6.33333 9.66667C6.33333 8.74619 5.58714 8 4.66667 8C3.74619 8 3 8.74619 3 9.66667C3 10.5871 3.74619 11.3333 4.66667 11.3333Z" stroke="#6B696E" stroke-linecap="round" stroke-linejoin="round"/>
<path d="M11.3327 11.3333C12.2532 11.3333 12.9993 10.5871 12.9993 9.66667C12.9993 8.74619 12.2532 8 11.3327 8C10.4122 8 9.66602 8.74619 9.66602 9.66667C9.66602 10.5871 10.4122 11.3333 11.3327 11.3333Z" stroke="#6B696E" stroke-linecap="round" stroke-linejoin="round"/>
<path d="M8.00065 4.66634C8.92113 4.66634 9.66732 3.92015 9.66732 2.99967C9.66732 2.0792 8.92113 1.33301 8.00065 1.33301C7.08018 1.33301 6.33398 2.0792 6.33398 2.99967C6.33398 3.92015 7.08018 4.66634 8.00065 4.66634Z" stroke="#6B696E" stroke-linecap="round" stroke-linejoin="round"/>
<path d="M8.00065 14.6663C8.00065 12.8254 6.50825 11.333 4.66732 11.333C2.82637 11.333 1.33398 12.8254 1.33398 14.6663" stroke="#6B696E" stroke-linecap="round" stroke-linejoin="round"/>
<path d="M14.6667 14.6663C14.6667 12.8254 13.1743 11.333 11.3333 11.333C9.4924 11.333 8 12.8254 8 14.6663" stroke="#6B696E" stroke-linecap="round" stroke-linejoin="round"/>
<path d="M11.3327 8.00033C11.3327 6.15939 9.84028 4.66699 7.99935 4.66699C6.15842 4.66699 4.66602 6.15939 4.66602 8.00033" stroke="#6B696E" stroke-linecap="round" stroke-linejoin="round"/>
</g>
<defs>
<clipPath id="clip0_18160_5042">
<rect width="16" height="16" fill="white"/>
</clipPath>
</defs>
</svg>
