<svg t="1739257546501" class="icon" viewBox="0 0 1024 1024" version="1.1" xmlns="http://www.w3.org/2000/svg" p-id="2807" width="34" height="34"><path d="M964.31616 59.757714C1056.183589 151.552 1038.336731 328.704 935.278446 512c103.058286 183.369143 120.758857 360.594286 29.037714 452.315429C872.595017 1056.182857 695.369874 1038.409143 512.000731 935.497143c-183.442286 102.838857-360.594286 120.685714-452.388571 28.964571C-32.182126 872.594286-14.408411 695.442286 88.503589 512.146286-14.408411 328.630857-32.182126 151.405714 59.61216 59.611429S328.558446-14.336 512.000731 88.649143C695.369874-14.336 872.595017-32.182857 964.31616 59.611429v0.146285zM144.384731 600.064l-2.413714 4.827429c-62.171429 130.194286-70.070857 244.004571-18.578286 295.643428 52.297143 52.224 168.301714 43.373714 300.617143-20.772571a1175.405714 1175.405714 0 0 1-151.552-128.219429 1170.651429 1170.651429 0 0 1-128.073143-151.405714z m735.305143 0l-12.288 16.969143a1191.936 1191.936 0 0 1-267.410285 262.656c132.169143 64.219429 248.173714 73.142857 300.470857 20.845714 52.224-52.224 43.300571-168.228571-20.772572-300.470857zM511.927589 193.974857l-7.094858 4.608c-60.708571 40.082286-117.248 86.308571-168.594285 137.874286a1060.790857 1060.790857 0 0 0-142.336 175.689143 1064.96 1064.96 0 0 0 142.409143 175.542857A1060.644571 1060.644571 0 0 0 512.000731 830.171429a1064.886857 1064.886857 0 0 0 175.542858-142.482286A1060.571429 1060.571429 0 0 0 830.099017 512 1065.252571 1065.252571 0 0 0 687.616731 336.457143a1060.790857 1060.790857 0 0 0-175.689142-142.482286z m-8.777143 217.6a112.859429 112.859429 0 1 1 0.146285 225.792 112.859429 112.859429 0 0 1-0.073142-225.792zM424.009874 144.384C291.694446 80.164571 175.689874 71.387429 123.392731 123.611429c-52.224 52.224-43.300571 168.228571 20.918858 300.544a1175.698286 1175.698286 0 0 1 128.146285-151.552 1179.648 1179.648 0 0 1 134.582857-115.858286l16.896-12.288z m180.882286-2.340571l-4.827429 2.413714c53.979429 38.326857 104.594286 81.188571 151.405715 128.073143a1170.285714 1170.285714 0 0 1 128.146285 151.405714c64.219429-132.096 73.142857-248.173714 20.918858-300.397714-51.638857-51.565714-165.449143-43.593143-295.643429 18.505143z" p-id="2808" fill="#7131e7"></path></svg>
