<svg width="68" height="51" viewBox="0 0 68 51" fill="none" xmlns="http://www.w3.org/2000/svg">
<path d="M34 0.5C44.4955 0.5 53.1442 8.68489 54.3115 19.2236C61.9925 19.9818 68 26.6781 68 34.8262C67.9999 43.4825 61.2195 50.4999 52.8555 50.5H15.1445C6.78046 50.4999 7.96842e-05 43.4825 0 34.8262C0 26.6781 6.00749 19.9821 13.6885 19.2236C14.8558 8.68507 23.5044 0.5 34 0.5ZM34.5 22.5C34.1158 22.4984 33.7307 22.6252 33.4375 22.8789L27.4375 28.0723C26.8548 28.5766 26.8548 29.3941 27.4375 29.8984C28.0202 30.4025 28.9643 30.4026 29.5469 29.8984L32.9844 26.9229V41.209C32.9845 41.9221 33.6526 42.4999 34.4766 42.5C35.3005 42.5 35.9686 41.9221 35.9688 41.209V26.8828L39.4531 29.8984C40.0358 30.4025 40.9798 30.4025 41.5625 29.8984C42.1452 29.3941 42.1452 28.5766 41.5625 28.0723L35.5625 22.8789C35.2712 22.6267 34.8887 22.5 34.5068 22.5H34.5Z" fill="#E7E8EB"/>
</svg>
