<svg width="16" height="16" viewBox="0 0 16 16" fill="none" xmlns="http://www.w3.org/2000/svg">
<path d="M5.33333 4.66667C6.06971 4.66667 6.66667 4.06971 6.66667 3.33333C6.66667 2.59695 6.06971 2 5.33333 2C4.59695 2 4 2.59695 4 3.33333C4 4.06971 4.59695 4.66667 5.33333 4.66667Z" fill="#6B696E" stroke="#6B696E"/>
<path d="M9.33333 12.6667H4.33347C3.00012 12.6667 2.00012 11.6944 2 10.3333C1.99988 8.97223 3.00012 8 4.33347 8H6.66667" stroke="#6B696E" stroke-linecap="round" stroke-linejoin="round"/>
<path d="M6.66709 8.00016H11.6669C13.0002 8.00016 14.0002 7.02793 14.0003 5.66683C14.0005 4.30573 13.0002 3.3335 11.6669 3.3335H6.66699" stroke="#6B696E" stroke-linecap="round" stroke-linejoin="round"/>
<path d="M2 3.3335H4" stroke="#6B696E" stroke-linecap="round" stroke-linejoin="round"/>
<path d="M12 12.6665H14" stroke="#6B696E" stroke-linecap="round" stroke-linejoin="round"/>
<path d="M10.6663 14.0002C11.4027 14.0002 11.9997 13.4032 11.9997 12.6668C11.9997 11.9304 11.4027 11.3335 10.6663 11.3335C9.92996 11.3335 9.33301 11.9304 9.33301 12.6668C9.33301 13.4032 9.92996 14.0002 10.6663 14.0002Z" fill="#6B696E" stroke="#6B696E"/>
</svg>
